<svg xmlns="http://www.w3.org/2000/svg" version="1.1" xmlns:xlink="http://www.w3.org/1999/xlink" width="512" height="512" x="0" y="0" viewBox="0 0 512 512" style="enable-background:new 0 0 512 512" xml:space="preserve" class=""><g><path d="M76.802 0C34.703 0 .125 34.828.125 76.927v76.678c0 42.101 34.577 76.877 76.678 76.877h76.678c42.1 0 76.927-34.777 76.927-76.877V76.927C230.407 34.828 195.58 0 153.48 0zM358.27 0c-42.1 0-76.678 34.828-76.678 76.927v76.678c0 42.101 34.577 76.877 76.678 76.877h76.927c42.1 0 76.678-34.777 76.678-76.877V76.927c0-42.1-34.577-76.927-76.678-76.927zM76.802 281.717c-42.1 0-76.678 34.578-76.678 76.678v76.728c0 42.1 34.577 76.877 76.678 76.877h76.678c42.1 0 76.927-34.778 76.927-76.877v-76.728c0-42.1-34.827-76.678-76.927-76.678zm281.468 0c-42.1 0-76.678 34.578-76.678 76.678v76.728c0 42.1 34.577 76.877 76.678 76.877h76.927c42.1 0 76.678-34.778 76.678-76.877v-76.728c0-42.1-34.577-76.678-76.678-76.678z" fill="#af1010" opacity="1" data-original="#000000" class=""></path></g></svg>