<svg xmlns="http://www.w3.org/2000/svg" version="1.1" xmlns:xlink="http://www.w3.org/1999/xlink" width="512" height="512" x="0" y="0" viewBox="0 0 480 480" style="enable-background:new 0 0 512 512" xml:space="preserve"><g><path d="M208 0H16C7.168 0 0 7.168 0 16v192c0 8.832 7.168 16 16 16h192c8.832 0 16-7.168 16-16V16c0-8.832-7.168-16-16-16zm-16 192H32V32h160v160zM464 0H272c-8.832 0-16 7.168-16 16v192c0 8.832 7.168 16 16 16h192c8.832 0 16-7.168 16-16V16c0-8.832-7.168-16-16-16zm-16 192H288V32h160v160zM208 256H16c-8.832 0-16 7.168-16 16v192c0 8.832 7.168 16 16 16h192c8.832 0 16-7.168 16-16V272c0-8.832-7.168-16-16-16zm-16 192H32V288h160v160zM464 256H272c-8.832 0-16 7.168-16 16v192c0 8.832 7.168 16 16 16h192c8.832 0 16-7.168 16-16V272c0-8.832-7.168-16-16-16zm-16 192H288V288h160v160z" fill="#000000" opacity="1" data-original="#000000"></path></g></svg>