<svg xmlns="http://www.w3.org/2000/svg" version="1.1" xmlns:xlink="http://www.w3.org/1999/xlink" width="512" height="512" x="0" y="0" viewBox="0 0 408 408" style="enable-background:new 0 0 512 512" xml:space="preserve" class=""><g><path d="M124 184H60c-33.137 0-60-26.863-60-60V60C0 26.863 26.863 0 60 0h64c33.137 0 60 26.863 60 60v64c0 33.137-26.863 60-60 60zM60 24c-19.882 0-36 16.118-36 36v64c0 19.882 16.118 36 36 36h64c19.882 0 36-16.118 36-36V60c0-19.882-16.118-36-36-36zM124 408H60c-33.137 0-60-26.863-60-60v-64c0-33.137 26.863-60 60-60h64c33.137 0 60 26.863 60 60v64c0 33.137-26.863 60-60 60zM60 248c-19.882 0-36 16.118-36 36v64c0 19.882 16.118 36 36 36h64c19.882 0 36-16.118 36-36v-64c0-19.882-16.118-36-36-36zM348 408h-64c-33.137 0-60-26.863-60-60v-64c0-33.137 26.863-60 60-60h64c33.137 0 60 26.863 60 60v64c0 33.137-26.863 60-60 60zm-64-160c-19.882 0-36 16.118-36 36v64c0 19.882 16.118 36 36 36h64c19.882 0 36-16.118 36-36v-64c0-19.882-16.118-36-36-36zM348 184h-64c-33.137 0-60-26.863-60-60V60c0-33.137 26.863-60 60-60h64c33.137 0 60 26.863 60 60v64c0 33.137-26.863 60-60 60zM284 24c-19.882 0-36 16.118-36 36v64c0 19.882 16.118 36 36 36h64c19.882 0 36-16.118 36-36V60c0-19.882-16.118-36-36-36z" fill="#000000" opacity="1" data-original="#000000" class=""></path></g></svg>