<svg xmlns="http://www.w3.org/2000/svg" version="1.1" xmlns:xlink="http://www.w3.org/1999/xlink" width="512" height="512" x="0" y="0" viewBox="0 0 512 512" style="enable-background:new 0 0 512 512" xml:space="preserve" class=""><g><path d="M256 0C114.848 0 0 114.848 0 256c0 49.216 13.792 96.48 39.936 137.216L1.152 490.048a16.03 16.03 0 0 0 3.552 17.28A15.992 15.992 0 0 0 16 512c2.016 0 4-.384 5.952-1.152l96.832-38.784C159.52 498.208 206.784 512 256 512c141.152 0 256-114.848 256-256S397.152 0 256 0zm0 480c-45.632 0-89.312-13.504-126.272-39.072-2.688-1.888-5.888-2.848-9.088-2.848-2.016 0-4.032.384-5.952 1.152l-69.952 28.032 28.032-69.952c1.984-4.992 1.344-10.656-1.696-15.04C45.504 345.312 32 301.632 32 256 32 132.48 132.48 32 256 32s224 100.48 224 224-100.48 224-224 224z" fill="#000000" opacity="1" data-original="#000000" class=""></path></g></svg>