<svg width="24" height="24" viewBox="0 0 24 24" fill="none" xmlns="http://www.w3.org/2000/svg">
<path fill-rule="evenodd" clip-rule="evenodd" d="M20.3333 5.25C20.5616 5.25443 20.7456 5.43841 20.75 5.66667V19C20.75 19.2347 20.5597 19.425 20.325 19.425H3.66667C3.43521 19.4205 3.25 19.2315 3.25 19V5.66667C3.25443 5.43841 3.43841 5.25443 3.66667 5.25H20.3333ZM20.3333 4H3.66667C2.74619 4 2 4.74619 2 5.66667V19C2 19.9205 2.74619 20.6667 3.66667 20.6667H20.3333C21.2538 20.6667 22 19.9205 22 19V5.66667C22 4.74619 21.2538 4 20.3333 4Z" fill="#212529"/>
<path d="M2.9668 8.15869H20.8918" stroke="#212529" stroke-width="1.25" stroke-linecap="round" stroke-linejoin="round"/>
<path d="M2.9917 11.5H20.9167" stroke="#212529" stroke-width="1.25" stroke-linecap="round" stroke-linejoin="round"/>
<path d="M6.16675 16.5H11.1667" stroke="#212529" stroke-width="1.25" stroke-linecap="round" stroke-linejoin="round"/>
<path d="M16.1667 16.5H17.8334" stroke="#212529" stroke-width="1.25" stroke-linecap="round" stroke-linejoin="round"/>
</svg>
