<svg xmlns="http://www.w3.org/2000/svg" version="1.1" xmlns:xlink="http://www.w3.org/1999/xlink" width="512" height="512" x="0" y="0" viewBox="0 0 512 512" style="enable-background:new 0 0 512 512" xml:space="preserve" class="hovered-paths"><g><path d="M332.917 171.823C327.229 166.646 320.771 160.771 320 160c0-11.609 14.943-36.1 26.267-54.484l52.358-20.943a10.67 10.67 0 0 0 6.396-12.49c-1.917-7.604-12-46.156-24.146-58.292C367.75.667 336.75 0 330.667 0a10.66 10.66 0 0 0-7.542 3.125c-11 11-44.5 39.542-67.125 39.542-22.563 0-56.104-28.552-67.125-39.542-2-2-4.708-3.125-7.542-3.125-6.083 0-37.083.667-50.208 13.792-12.146 12.135-22.229 50.688-24.146 58.292a10.671 10.671 0 0 0 6.396 12.49l52.358 20.943c11.323 18.384 26.272 42.845 26.517 53.005-1.021 2.25-7.479 8.125-13.167 13.302C144.646 203.188 64 276.635 64 480a10.66 10.66 0 0 0 10.667 10.667c44.104 0 65.521 5.042 88.229 10.385C185.771 506.438 209.438 512 256 512s70.229-5.563 93.104-10.948c22.708-5.344 44.125-10.385 88.229-10.385A10.66 10.66 0 0 0 448 480c0-203.365-80.646-276.812-115.083-308.177z" fill="#000000" opacity="1" data-original="#000000" class="hovered-path"></path></g></svg>