<svg width="13" height="13" viewBox="0 0 13 13" fill="none" xmlns="http://www.w3.org/2000/svg">
<path d="M2.125 10.875H3.01562L9.125 4.76562L8.23438 3.875L2.125 9.98438V10.875ZM0.875 12.125V9.46875L9.125 1.23438C9.25 1.11979 9.38802 1.03125 9.53906 0.96875C9.6901 0.90625 9.84896 0.875 10.0156 0.875C10.1823 0.875 10.3438 0.90625 10.5 0.96875C10.6562 1.03125 10.7917 1.125 10.9063 1.25L11.7656 2.125C11.8906 2.23958 11.9818 2.375 12.0391 2.53125C12.0964 2.6875 12.125 2.84375 12.125 3C12.125 3.16667 12.0964 3.32552 12.0391 3.47656C11.9818 3.6276 11.8906 3.76563 11.7656 3.89063L3.53125 12.125H0.875ZM8.67188 4.32812L8.23438 3.875L9.125 4.76562L8.67188 4.32812Z" fill="#323232"/>
</svg>
