<svg width="15" height="15" viewBox="0 0 15 15" fill="none" xmlns="http://www.w3.org/2000/svg">
<path d="M11.2307 1.47812C11.2393 1.46863 11.2445 1.46349 11.2473 1.46087C11.2476 1.46054 11.2479 1.46027 11.2482 1.46006C11.3268 1.40611 11.5379 1.28341 11.8151 1.27601C12.0753 1.26906 12.4473 1.36121 12.8754 1.83711C13.3035 2.31302 13.3864 2.72657 13.3801 3.01584C13.3735 3.32398 13.2631 3.55859 13.2146 3.64604C13.2144 3.64631 13.2141 3.64663 13.2138 3.64702C13.2115 3.65016 13.2069 3.65593 13.1983 3.66542L8.78123 8.57579C8.72332 8.64017 8.65135 8.68673 8.57239 8.7109L6.78006 9.25956C6.42628 9.36785 6.10117 9.00643 6.19858 8.61315L6.69213 6.62065C6.71387 6.53287 6.75575 6.45287 6.81366 6.38849L11.2307 1.47812ZM13.6102 3.92276L13.6149 3.92597L13.6102 3.92276Z" stroke="#3D3D3D"/>
<path d="M5.47198 3.31543H1V14.3154H11.32V9.60114" stroke="#3D3D3D" stroke-linecap="round" stroke-linejoin="round"/>
</svg>
