<svg width="20" height="20" viewBox="0 0 20 20" fill="none" xmlns="http://www.w3.org/2000/svg">
    <mask id="mask0_899_110" style="mask-type:alpha" maskUnits="userSpaceOnUse" x="0" y="0"
        width="20" height="20">
        <rect width="20" height="20" fill="#D9D9D9" />
    </mask>
    <g mask="url(#mask0_899_110)">
        <path
            d="M9.99984 18.3334C8.86095 18.3334 7.78456 18.1146 6.77067 17.6771C5.75678 17.2396 4.87136 16.6424 4.11442 15.8854C3.35748 15.1285 2.76025 14.2431 2.32275 13.2292C1.88525 12.2153 1.6665 11.1389 1.6665 10C1.6665 8.84724 1.88525 7.76738 2.32275 6.76044C2.76025 5.75349 3.35748 4.87155 4.11442 4.1146C4.87136 3.35766 5.75678 2.76044 6.77067 2.32294C7.78456 1.88544 8.86095 1.66669 9.99984 1.66669C11.1526 1.66669 12.2325 1.88544 13.2394 2.32294C14.2464 2.76044 15.1283 3.35766 15.8853 4.1146C16.6422 4.87155 17.2394 5.75349 17.6769 6.76044C18.1144 7.76738 18.3332 8.84724 18.3332 10V11.2084C18.3332 12.0278 18.0519 12.7257 17.4894 13.3021C16.9269 13.8785 16.2359 14.1667 15.4165 14.1667C14.9165 14.1667 14.4512 14.0556 14.0207 13.8334C13.5901 13.6111 13.2359 13.3195 12.9582 12.9584C12.5832 13.3334 12.1422 13.6285 11.6353 13.8438C11.1283 14.059 10.5832 14.1667 9.99984 14.1667C8.84706 14.1667 7.86442 13.7604 7.05192 12.9479C6.23942 12.1354 5.83317 11.1528 5.83317 10C5.83317 8.84724 6.23942 7.8646 7.05192 7.0521C7.86442 6.2396 8.84706 5.83335 9.99984 5.83335C11.1526 5.83335 12.1353 6.2396 12.9478 7.0521C13.7603 7.8646 14.1665 8.84724 14.1665 10V11.2084C14.1665 11.6111 14.2915 11.9271 14.5415 12.1563C14.7915 12.3854 15.0832 12.5 15.4165 12.5C15.7498 12.5 16.0415 12.3854 16.2915 12.1563C16.5415 11.9271 16.6665 11.6111 16.6665 11.2084V10C16.6665 8.18058 16.0103 6.6146 14.6978 5.3021C13.3853 3.9896 11.8193 3.33335 9.99984 3.33335C8.18039 3.33335 6.61442 3.9896 5.30192 5.3021C3.98942 6.6146 3.33317 8.18058 3.33317 10C3.33317 11.8195 3.98942 13.3854 5.30192 14.6979C6.61442 16.0104 8.18039 16.6667 9.99984 16.6667H14.1665V18.3334H9.99984ZM9.99984 12.5C10.6943 12.5 11.2846 12.257 11.7707 11.7709C12.2568 11.2847 12.4998 10.6945 12.4998 10C12.4998 9.30558 12.2568 8.7153 11.7707 8.22919C11.2846 7.74308 10.6943 7.50002 9.99984 7.50002C9.30539 7.50002 8.71512 7.74308 8.229 8.22919C7.74289 8.7153 7.49984 9.30558 7.49984 10C7.49984 10.6945 7.74289 11.2847 8.229 11.7709C8.71512 12.257 9.30539 12.5 9.99984 12.5Z"
            fill="#8B91A1" />
    </g>
</svg>