<svg xmlns="http://www.w3.org/2000/svg" version="1.1" xmlns:xlink="http://www.w3.org/1999/xlink" width="512" height="512" x="0" y="0" viewBox="0 0 25 25" style="enable-background:new 0 0 512 512" xml:space="preserve" class=""><g><path d="M15.5 12.5a3 3 0 1 1-3-3 3 3 0 0 1 3 3zm6.488.1a.459.459 0 0 1-.039.1.482.482 0 0 1-.027.072c-.136.213-3.406 5.251-9.422 5.251s-9.286-5.038-9.422-5.251a.482.482 0 0 1-.027-.072.459.459 0 0 1-.039-.1 1.537 1.537 0 0 1 0-.192.459.459 0 0 1 .039-.1.482.482 0 0 1 .027-.072c.136-.218 3.406-5.256 9.422-5.256s9.286 5.038 9.422 5.251a.482.482 0 0 1 .027.072.459.459 0 0 1 .039.1 1.538 1.538 0 0 1 0 .192zm-1.1-.1c-.742-1-3.683-4.52-8.387-4.52S4.855 11.5 4.113 12.5c.742 1 3.683 4.52 8.387 4.52s7.645-3.52 8.387-4.52z" fill="#000000" opacity="1" data-original="#000000"></path></g></svg>