<svg width="20" height="20" viewBox="0 0 20 20" fill="none" xmlns="http://www.w3.org/2000/svg">
<rect width="20" height="20" fill="#F5F5F5"/>
<path fill-rule="evenodd" clip-rule="evenodd" d="M10 0.833333C4.93739 0.833333 0.833333 4.93739 0.833333 10C0.833333 15.0626 4.93739 19.1667 10 19.1667C15.0626 19.1667 19.1667 15.0626 19.1667 10C19.1667 4.93739 15.0626 0.833333 10 0.833333ZM0 10C0 4.47715 4.47715 0 10 0C15.5228 0 20 4.47715 20 10C20 15.5228 15.5228 20 10 20C4.47715 20 0 15.5228 0 10Z" fill="black"/>
<path d="M9.41003 11.2715C9.41003 10.867 9.49948 10.5326 9.67837 10.2681C9.86503 10.0037 10.1334 9.71203 10.4834 9.39314C10.74 9.1598 10.9267 8.96536 11.0434 8.80981C11.1678 8.64647 11.23 8.46369 11.23 8.26147C11.23 7.97369 11.1134 7.74814 10.88 7.5848C10.6545 7.41369 10.3511 7.32814 9.97003 7.32814C9.60448 7.32814 9.27781 7.40592 8.99003 7.56147C8.71003 7.70925 8.47281 7.91925 8.27837 8.19147L6.8667 7.36314C7.19337 6.86536 7.63281 6.48036 8.18503 6.20814C8.74503 5.93592 9.40614 5.7998 10.1684 5.7998C11.0628 5.7998 11.7784 5.99036 12.315 6.37147C12.8595 6.75258 13.1317 7.28147 13.1317 7.95814C13.1317 8.27703 13.0773 8.55703 12.9684 8.79814C12.8673 9.03925 12.7389 9.24536 12.5834 9.41647C12.4356 9.5798 12.2411 9.77036 12 9.98814C11.7123 10.2448 11.5023 10.4626 11.37 10.6415C11.2378 10.8126 11.1717 11.0226 11.1717 11.2715H9.41003ZM10.2967 14.1998C9.97781 14.1998 9.70948 14.0987 9.4917 13.8965C9.2817 13.6865 9.1767 13.4337 9.1767 13.1381C9.1767 12.8426 9.2817 12.5976 9.4917 12.4031C9.7017 12.2009 9.97003 12.0998 10.2967 12.0998C10.6234 12.0998 10.8917 12.2009 11.1017 12.4031C11.3117 12.5976 11.4167 12.8426 11.4167 13.1381C11.4167 13.4337 11.3078 13.6865 11.09 13.8965C10.88 14.0987 10.6156 14.1998 10.2967 14.1998Z" fill="black"/>
</svg>
