<svg width="17" height="17" viewBox="0 0 17 17" fill="none" xmlns="http://www.w3.org/2000/svg">
<path d="M15.6891 1.50292C15.2738 1.02645 14.7806 0.648483 14.2377 0.390606C13.6949 0.13273 13.1131 0 12.5255 0C11.9379 0 11.3561 0.13273 10.8133 0.390606C10.2704 0.648483 9.77724 1.02645 9.36186 1.50292L8.49978 2.4913L7.63771 1.50292C6.79866 0.540937 5.66066 0.000498631 4.47407 0.000498641C3.28747 0.000498651 2.14947 0.540937 1.31042 1.50292C0.471374 2.46491 8.84083e-09 3.76964 0 5.1301C-8.84083e-09 6.49055 0.471374 7.79529 1.31042 8.75727L2.1725 9.74565L8.49978 17L14.8271 9.74565L15.6891 8.75727C16.1047 8.28102 16.4344 7.71557 16.6593 7.0932C16.8842 6.47084 17 5.80377 17 5.1301C17 4.45642 16.8842 3.78935 16.6593 3.16699C16.4344 2.54463 16.1047 1.97917 15.6891 1.50292Z" fill="url(#paint0_linear_729_3802)"/>
<defs>
<linearGradient id="paint0_linear_729_3802" x1="8.5" y1="0" x2="8.5" y2="17" gradientUnits="userSpaceOnUse">
<stop stop-color="#AF1010"/>
<stop offset="1" stop-color="#B31E1E"/>
</linearGradient>
</defs>
</svg>
