<svg width="54" height="33" viewBox="0 0 54 33" fill="none" xmlns="http://www.w3.org/2000/svg">
<path d="M0 0V3H32.0625V25.5H21.6738C20.9224 22.9219 18.312 21 15.1875 21C12.063 21 9.45264 22.9219 8.70117 25.5H6.75V18H3.375V28.5H8.70117C9.45264 31.0781 12.063 33 15.1875 33C18.312 33 20.9224 31.0781 21.6738 28.5H35.7012C36.4526 31.0781 39.063 33 42.1875 33C45.312 33 47.9224 31.0781 48.6738 28.5H54V16.2656L53.8945 16.0312L50.5195 7.03125L50.1504 6H35.4375V0H0ZM1.6875 6V9H16.875V6H1.6875ZM35.4375 9H47.7246L50.625 16.6875V25.5H48.6738C47.9224 22.9219 45.312 21 42.1875 21C39.063 21 36.4526 22.9219 35.7012 25.5H35.4375V9ZM3.375 12V15H13.5V12H3.375ZM15.1875 24C17.0728 24 18.5625 25.3242 18.5625 27C18.5625 28.6758 17.0728 30 15.1875 30C13.3022 30 11.8125 28.6758 11.8125 27C11.8125 25.3242 13.3022 24 15.1875 24ZM42.1875 24C44.0728 24 45.5625 25.3242 45.5625 27C45.5625 28.6758 44.0728 30 42.1875 30C40.3022 30 38.8125 28.6758 38.8125 27C38.8125 25.3242 40.3022 24 42.1875 24Z" fill="black"/>
</svg>
