<svg width="12" height="12" viewBox="0 0 12 12" fill="none" xmlns="http://www.w3.org/2000/svg">
<g clip-path="url(#clip0_745_4278)">
<path d="M6.555 2.86L6.27 4.305C6.21 4.6 6.29 4.905 6.48 5.135C6.67 5.365 6.95 5.5 7.25 5.5H10V6.04L8.715 9H4.67C4.58 9 4.5 8.92 4.5 8.83V4.91L6.555 2.86ZM7 1L3.795 4.205C3.605 4.395 3.5 4.65 3.5 4.915V8.83C3.5 9.475 4.025 10 4.67 10H8.72C9.075 10 9.4 9.815 9.58 9.515L10.915 6.44C10.97 6.315 11 6.18 11 6.04V5.5C11 4.95 10.55 4.5 10 4.5H7.25L7.71 2.175C7.735 2.065 7.72 1.945 7.67 1.845C7.555 1.62 7.41 1.415 7.23 1.235L7 1ZM2 4.5H1V10H2C2.275 10 2.5 9.775 2.5 9.5V5C2.5 4.725 2.275 4.5 2 4.5Z" fill="#323232"/>
</g>
<defs>
<clipPath id="clip0_745_4278">
<rect width="12" height="12" fill="white"/>
</clipPath>
</defs>
</svg>
