<svg width="19" height="18" viewBox="0 0 19 18" fill="none" xmlns="http://www.w3.org/2000/svg">
<path id="Vector" d="M16.5543 2.40082C16.1425 1.95672 15.6536 1.60443 15.1154 1.36407C14.5772 1.12371 14.0004 1 13.4179 1C12.8353 1 12.2585 1.12371 11.7204 1.36407C11.1822 1.60443 10.6932 1.95672 10.2814 2.40082L9.42675 3.32205L8.57208 2.40082C7.74024 1.50419 6.61203 1.00046 5.43563 1.00046C4.25922 1.00046 3.13101 1.50419 2.29916 2.40082C1.46732 3.29745 1 4.51354 1 5.78157C1 7.0496 1.46732 8.2657 2.29916 9.16233L3.15383 10.0836L9.42675 16.8451L15.6997 10.0836L16.5543 9.16233C16.9663 8.71844 17.2932 8.19139 17.5162 7.61131C17.7392 7.03123 17.8539 6.40948 17.8539 5.78157C17.8539 5.15367 17.7392 4.53191 17.5162 3.95183C17.2932 3.37175 16.9663 2.84471 16.5543 2.40082Z" fill="#AF1010" stroke="#AF1010" stroke-linecap="round" stroke-linejoin="round"/>
</svg>
