<svg width="18" height="22" viewBox="0 0 18 22" fill="none" xmlns="http://www.w3.org/2000/svg">
<path d="M6.18336 19.2083L6.48336 19.5917C7.83336 21.3167 10.5334 21.3167 11.8834 19.5917L12.1834 19.2083M1.36619 13.985L1.46954 14.1892C2.13331 15.5006 3.52054 16.3333 5.04144 16.3333H13.2623C14.5656 16.3333 15.7785 15.6952 16.4783 14.6415C17.4661 13.1541 17.2045 11.2029 15.8564 10.0031L15.8125 9.96403C14.8972 9.14944 14.4466 7.96271 14.6015 6.7749L14.6662 6.27951C15.0318 3.47613 12.7509 1 9.80286 1H8.09995C5.15552 1 2.87737 3.47311 3.24258 6.27307L3.32194 6.88147C3.46808 8.00188 3.04102 9.12101 2.17514 9.88675C0.99242 10.9327 0.663827 12.5974 1.36619 13.985Z" stroke="#2D264B" stroke-width="1.5" stroke-linecap="round"/>
</svg>
