<svg width="20" height="22" viewBox="0 0 20 22" fill="none" xmlns="http://www.w3.org/2000/svg">
<path d="M12.7063 1C13.6728 1 14.4563 1.7835 14.4563 2.75C14.4563 3.7165 15.2398 4.5 16.2063 4.5H16.7956C18.0069 4.5 19.0067 5.42655 18.9603 6.6369C18.8794 8.7498 18.4682 12.0809 16.8664 15C16.4438 15.7702 15.8698 16.543 15.2324 17.2795C13.2525 19.567 12.2625 20.7107 9.97744 20.7107C7.69234 20.7107 6.70238 19.567 4.72246 17.2795C4.08504 16.543 3.51106 15.7702 3.08845 15C1.53463 12.1683 1.10114 9.15954 1.00265 7.20867C0.941736 6.00211 1.93997 5.08333 3.14807 5.08333H3.45693C4.58451 5.08333 5.4986 4.16925 5.4986 3.04167C5.4986 1.91409 6.41268 1 7.54027 1H12.7063Z" stroke="#2D264B" stroke-width="1.5"/>
</svg>
