<svg width="20" height="20" viewBox="0 0 20 20" fill="none" xmlns="http://www.w3.org/2000/svg">
<path d="M20 7.5H12.4995L15.3035 4.69625C13.8871 3.28 12.0033 2.5 9.99938 2.5C7.9955 2.5 6.11288 3.28 4.69529 4.69625C3.27896 6.1125 2.49891 7.99625 2.49891 10C2.49891 12.0037 3.27896 13.8863 4.69529 15.3038C6.11163 16.72 7.9955 17.5 9.99938 17.5C12.0033 17.5 13.8859 16.72 15.3035 15.3038C15.4222 15.185 15.5347 15.0638 15.6447 14.9388L17.5261 16.585C15.6935 18.6775 13.0008 20 10.0006 20C4.47778 20 0 15.5225 0 10C0 4.4775 4.47778 0 10.0006 0C12.762 0 15.2622 1.12 17.0711 2.93L20 0V7.5Z" fill="black"/>
</svg>
