<svg width="15" height="15" viewBox="0 0 15 15" fill="none" xmlns="http://www.w3.org/2000/svg">
<mask id="mask0_82_755" style="mask-type:alpha" maskUnits="userSpaceOnUse" x="0" y="0" width="15" height="15">
<rect width="15" height="15" fill="#D9D9D9"/>
</mask>
<g mask="url(#mask0_82_755)">
<path d="M13.2142 14.4643L9.73207 10.9822C9.28564 11.3393 8.77225 11.6221 8.19189 11.8304C7.61154 12.0387 6.99398 12.1429 6.33922 12.1429C4.71719 12.1429 3.34442 11.5812 2.22091 10.4576C1.0974 9.33413 0.535645 7.96136 0.535645 6.33934C0.535645 4.71731 1.0974 3.34455 2.22091 2.22103C3.34442 1.09752 4.71719 0.535767 6.33922 0.535767C7.96124 0.535767 9.33401 1.09752 10.4575 2.22103C11.581 3.34455 12.1428 4.71731 12.1428 6.33934C12.1428 6.9941 12.0386 7.61166 11.8303 8.19202C11.622 8.77237 11.3392 9.28577 10.9821 9.73219L14.4642 13.2143L13.2142 14.4643ZM6.33922 10.3572C7.45529 10.3572 8.40395 9.96657 9.1852 9.18532C9.96645 8.40407 10.3571 7.45541 10.3571 6.33934C10.3571 5.22327 9.96645 4.27461 9.1852 3.49336C8.40395 2.71211 7.45529 2.32148 6.33922 2.32148C5.22314 2.32148 4.27448 2.71211 3.49323 3.49336C2.71198 4.27461 2.32136 5.22327 2.32136 6.33934C2.32136 7.45541 2.71198 8.40407 3.49323 9.18532C4.27448 9.96657 5.22314 10.3572 6.33922 10.3572Z" fill="#8B91A1"/>
</g>
</svg>
