<svg xmlns="http://www.w3.org/2000/svg" version="1.1" xmlns:xlink="http://www.w3.org/1999/xlink" width="512" height="512" x="0" y="0" viewBox="0 0 128 128" style="enable-background:new 0 0 512 512" xml:space="preserve" class=""><g><path d="M62.563 92.926a4.006 4.006 0 0 1 .512 5.637l-20 24a4.004 4.004 0 0 1-6.149-.001l-20-24a4.005 4.005 0 0 1 .512-5.637 4.005 4.005 0 0 1 5.637.512L36 108.95V8c0-2.211 1.789-4 4-4s4 1.789 4 4v100.95l12.926-15.512a4.004 4.004 0 0 1 5.637-.512zm48.511-63.488-20-24c-1.523-1.82-4.625-1.82-6.148 0l-20 24a4.005 4.005 0 0 0 .512 5.637 4.005 4.005 0 0 0 5.637-.512L84 19.05V120c0 2.211 1.789 4 4 4s4-1.789 4-4V19.05l12.926 15.512A3.997 3.997 0 0 0 108.004 36c.902 0 1.809-.305 2.559-.926a4.005 4.005 0 0 0 .511-5.636z" fill="#000000" opacity="1" data-original="#000000"></path></g></svg>