<svg xmlns="http://www.w3.org/2000/svg" version="1.1" xmlns:xlink="http://www.w3.org/1999/xlink" width="512" height="512" x="0" y="0" viewBox="0 0 32 32" style="enable-background:new 0 0 512 512" xml:space="preserve" class=""><g><g fill="#000" fill-rule="evenodd" clip-rule="evenodd"><path d="M5.293 21.293a1 1 0 0 1 1.414 0L10 24.586l3.293-3.293a1 1 0 0 1 1.414 1.414l-4 4a1 1 0 0 1-1.414 0l-4-4a1 1 0 0 1 0-1.414z" fill="#000000" opacity="1" data-original="#000000"></path><path d="M10 5a1 1 0 0 1 1 1v20a1 1 0 1 1-2 0V6a1 1 0 0 1 1-1zM21.293 5.293a1 1 0 0 1 1.414 0l4 4a1 1 0 0 1-1.414 1.414L22 7.414l-3.293 3.293a1 1 0 0 1-1.414-1.414z" fill="#000000" opacity="1" data-original="#000000"></path><path d="M22 5a1 1 0 0 1 1 1v20a1 1 0 1 1-2 0V6a1 1 0 0 1 1-1z" fill="#000000" opacity="1" data-original="#000000"></path></g></g></svg>