<svg width="20" height="20" viewBox="0 0 20 20" fill="none" xmlns="http://www.w3.org/2000/svg">
<mask id="mask0_666_42" style="mask-type:alpha" maskUnits="userSpaceOnUse" x="0" y="0" width="20" height="20">
<rect width="20" height="20" fill="#D9D9D9"/>
</mask>
<g mask="url(#mask0_666_42)">
<path d="M5.19234 11.25C4.84861 11.25 4.55434 11.1276 4.30955 10.8828C4.06477 10.638 3.94238 10.3437 3.94238 10C3.94238 9.65627 4.06477 9.36201 4.30955 9.11722C4.55434 8.87243 4.84861 8.75003 5.19234 8.75003C5.53609 8.75003 5.83036 8.87243 6.07513 9.11722C6.31992 9.36201 6.44232 9.65627 6.44232 10C6.44232 10.3437 6.31992 10.638 6.07513 10.8828C5.83036 11.1276 5.53609 11.25 5.19234 11.25ZM10 11.25C9.65629 11.25 9.36203 11.1276 9.11724 10.8828C8.87245 10.638 8.75005 10.3437 8.75005 10C8.75005 9.65627 8.87245 9.36201 9.11724 9.11722C9.36203 8.87243 9.65629 8.75003 10 8.75003C10.3438 8.75003 10.638 8.87243 10.8828 9.11722C11.1276 9.36201 11.25 9.65627 11.25 10C11.25 10.3437 11.1276 10.638 10.8828 10.8828C10.638 11.1276 10.3438 11.25 10 11.25ZM14.8077 11.25C14.464 11.25 14.1697 11.1276 13.9249 10.8828C13.6801 10.638 13.5577 10.3437 13.5577 10C13.5577 9.65627 13.6801 9.36201 13.9249 9.11722C14.1697 8.87243 14.464 8.75003 14.8077 8.75003C15.1515 8.75003 15.4457 8.87243 15.6905 9.11722C15.9353 9.36201 16.0577 9.65627 16.0577 10C16.0577 10.3437 15.9353 10.638 15.6905 10.8828C15.4457 11.1276 15.1515 11.25 14.8077 11.25Z" fill="#666666"/>
</g>
</svg>
