<svg width="24" height="17" viewBox="0 0 24 17" fill="none" xmlns="http://www.w3.org/2000/svg">
<g clip-path="url(#clip0_1_3)">
<path d="M17.876 10.4658C16.2309 10.4658 14.8926 11.8042 14.8926 13.4493C14.8926 15.0944 16.2309 16.4327 17.876 16.4327C19.5214 16.4327 20.8595 15.0944 20.8595 13.4493C20.8595 11.8042 19.5211 10.4658 17.876 10.4658ZM17.876 14.941C17.0534 14.941 16.3843 14.272 16.3843 13.4493C16.3843 12.6266 17.0534 11.9575 17.876 11.9575C18.6987 11.9575 19.3678 12.6266 19.3678 13.4493C19.3678 14.272 18.6987 14.941 17.876 14.941Z" fill="#495057"/>
<path d="M7.68219 10.4658C6.03708 10.4658 4.69873 11.8042 4.69873 13.4493C4.69873 15.0944 6.03708 16.4327 7.68219 16.4327C9.3273 16.4327 10.6656 15.0944 10.6656 13.4493C10.6656 11.8042 9.3273 10.4658 7.68219 10.4658ZM7.68219 14.941C6.85952 14.941 6.19046 14.272 6.19046 13.4493C6.19046 12.6266 6.85952 11.9575 7.68219 11.9575C8.50463 11.9575 9.17392 12.6266 9.17392 13.4493C9.17392 14.272 8.50486 14.941 7.68219 14.941Z" fill="#495057"/>
<path d="M19.8848 1.92636C19.758 1.67451 19.5002 1.51562 19.2183 1.51562H15.29V3.00735H18.7583L20.7893 7.04694L22.1224 6.37663L19.8848 1.92636Z" fill="#495057"/>
<path d="M15.6383 12.7285H9.99463V14.2202H15.6383V12.7285Z" fill="#495057"/>
<path d="M5.44474 12.7285H2.85912C2.44714 12.7285 2.11328 13.0624 2.11328 13.4744C2.11328 13.8863 2.44719 14.2202 2.85912 14.2202H5.44479C5.85677 14.2202 6.19063 13.8863 6.19063 13.4744C6.19063 13.0624 5.85673 12.7285 5.44474 12.7285Z" fill="#495057"/>
<path d="M23.5121 8.16873L22.045 6.27921C21.904 6.09721 21.6865 5.9908 21.456 5.9908H16.036V0.769767C16.036 0.357784 15.7021 0.0239258 15.2902 0.0239258H2.85912C2.44714 0.0239258 2.11328 0.35783 2.11328 0.769767C2.11328 1.1817 2.44719 1.51561 2.85912 1.51561H14.5443V6.73664C14.5443 7.14862 14.8782 7.48248 15.2901 7.48248H21.0907L22.1769 8.88171V12.7284H20.1134C19.7014 12.7284 19.3675 13.0623 19.3675 13.4742C19.3675 13.8862 19.7014 14.2201 20.1134 14.2201H22.9228C23.3348 14.2201 23.6687 13.8862 23.6687 13.4742V8.6262C23.6687 8.46062 23.6135 8.29951 23.5121 8.16873Z" fill="#495057"/>
<path d="M7.11055 6.01562H0.745841C0.333904 6.01562 0 6.34953 0 6.76151C0 7.1735 0.333904 7.50735 0.745841 7.50735H7.11055C7.52253 7.50735 7.85639 7.17345 7.85639 6.76151C7.85639 6.34958 7.52253 6.01562 7.11055 6.01562Z" fill="#495057"/>
<path d="M8.32881 3.08203H1.9641C1.55212 3.08203 1.21826 3.41594 1.21826 3.82787C1.21826 4.23986 1.55217 4.57371 1.9641 4.57371H8.32881C8.74079 4.57371 9.07465 4.23981 9.07465 3.82787C9.07465 3.41594 8.74079 3.08203 8.32881 3.08203Z" fill="#495057"/>
<path d="M5.39509 8.94922H1.9641C1.55212 8.94922 1.21826 9.28312 1.21826 9.69506C1.21826 10.107 1.55217 10.4409 1.9641 10.4409H5.39505C5.80703 10.4409 6.14089 10.107 6.14089 9.69506C6.14089 9.28312 5.80703 8.94922 5.39509 8.94922Z" fill="#495057"/>
</g>
<defs>
<clipPath id="clip0_1_3">
<rect width="24" height="17" fill="white"/>
</clipPath>
</defs>
</svg>
