<svg xmlns="http://www.w3.org/2000/svg" version="1.1" xmlns:xlink="http://www.w3.org/1999/xlink" width="512" height="512" x="0" y="0" viewBox="0 0 496 496" style="enable-background:new 0 0 512 512" xml:space="preserve" class=""><g><path d="M0 304v65.6C0 396.8 21.6 416 48 416h400c26.4 0 48-19.2 48-46.4V304H0z" style="" fill="#4c4b4b" data-original="#4c4b4b"></path><path d="M448 80H48C21.6 80 0 99.2 0 126.4V192h496v-65.6c0-27.2-21.6-46.4-48-46.4z" style="" fill="#49a948" data-original="#49a948"></path><path d="M0 192h496v112H0z" style="" fill="#ffffff" data-original="#ffffff"></path><path d="M446.4 416c26.4 0 49.6-19.2 49.6-46.4V304H315.2l131.2 112z" style="" fill="#3f3f3f" data-original="#3f3f3f"></path><path d="M448 80H48l132.8 112H496v-65.6c0-27.2-21.6-46.4-48-46.4z" style="" fill="#369933" data-original="#369933"></path><path d="M316 304h180V192H180z" style="" fill="#cfe5e2" data-original="#cfe5e2"></path><path d="M448 80H48l370.4 112H496v-65.6c0-27.2-21.6-46.4-48-46.4z" style="" fill="#1c8417" data-original="#1c8417" class=""></path><path d="M496 214.4V192h-81.6z" style="" fill="#bad3cf" data-original="#bad3cf"></path><path d="M496 368.8c0 28.8-21.6 47.2-48 47.2H48c-26.4 0-48-20.8-48-48" style="" fill="#232222" data-original="#232222"></path><path d="M120 80H48C21.6 80 0 99.2 0 126.4v244C0 396.8 21.6 416 48 416h72V80z" style="" fill="#e73b36" data-original="#e73b36"></path><path d="M120 192H0v-.8 113.6-.8h120z" style="" fill="#db2c2c" data-original="#db2c2c"></path><path d="M0 304v66.4C0 396.8 21.6 416 48 416h72V304H0z" style="" fill="#cc2525" data-original="#cc2525"></path><path d="M0 368c0 32 21.6 48 48 48h72v-48H0z" style="" fill="#b70808" data-original="#b70808"></path><path d="M120 80H48l72 60.8z" style="" fill="#cc2525" data-original="#cc2525"></path><path d="M120 80H48l72 20z" style="" fill="#b70808" data-original="#b70808"></path></g></svg>